<svg xmlns="http://www.w3.org/2000/svg" xmlns:xlink="http://www.w3.org/1999/xlink" viewBox="0 0 246.03 105.59"><defs><style>.cls-1{fill:url(#linear-gradient);}.cls-2{fill:url(#linear-gradient-2);}.cls-3{fill:url(#linear-gradient-3);}.cls-4{fill:url(#linear-gradient-4);}.cls-5{fill:url(#linear-gradient-5);}.cls-6{fill:url(#linear-gradient-6);}.cls-7{fill:url(#linear-gradient-7);}.cls-8{fill:url(#linear-gradient-8);}.cls-9{fill:url(#linear-gradient-9);}.cls-10{fill:#fff;}.cls-11{fill:url(#linear-gradient-10);}</style><linearGradient id="linear-gradient" x1="15.91" y1="78.61" x2="75.53" y2="78.61" gradientUnits="userSpaceOnUse"><stop offset="0.55" stop-color="#489ad5"/><stop offset="1" stop-color="#6a5aa7"/></linearGradient><linearGradient id="linear-gradient-2" x1="14.91" y1="78.33" x2="76.53" y2="78.33" gradientUnits="userSpaceOnUse"><stop offset="0.6" stop-color="#489ad5"/><stop offset="1" stop-color="#6a5aa7"/></linearGradient><linearGradient id="linear-gradient-3" x1="8.45" y1="14.06" x2="82.99" y2="14.06" xlink:href="#linear-gradient"/><linearGradient id="linear-gradient-4" x1="6.45" y1="14.06" x2="84.99" y2="14.06" xlink:href="#linear-gradient-2"/><linearGradient id="linear-gradient-5" x1="1" y1="61.4" x2="90.44" y2="61.4" xlink:href="#linear-gradient"/><linearGradient id="linear-gradient-6" x1="0" y1="61.4" x2="91.44" y2="61.4" xlink:href="#linear-gradient-2"/><linearGradient id="linear-gradient-7" x1="15.91" y1="78.61" x2="45.72" y2="78.61" gradientUnits="userSpaceOnUse"><stop offset="0" stop-color="#2d86c4"/><stop offset="1" stop-color="#413476"/></linearGradient><linearGradient id="linear-gradient-8" x1="8.45" y1="14.06" x2="45.72" y2="14.06" xlink:href="#linear-gradient-7"/><linearGradient id="linear-gradient-9" x1="1" y1="61.4" x2="45.72" y2="61.4" xlink:href="#linear-gradient-7"/><linearGradient id="linear-gradient-10" x1="140.72" y1="50.77" x2="140.72" y2="29.89" gradientUnits="userSpaceOnUse"><stop offset="0" stop-color="#6a5aa7"/><stop offset="1" stop-color="#489ad5"/></linearGradient></defs><g id="Layer_2" data-name="Layer 2"><g id="Layer_5" data-name="Layer 5"><polygon class="cls-1" points="75.53 52.8 75.53 61.41 68.09 65.7 68.08 65.7 68.08 65.72 60.63 70.02 53.18 74.31 53.17 74.31 53.17 100.14 45.72 104.44 38.27 100.14 38.27 74.31 38.26 74.31 30.81 70.02 23.36 65.72 23.36 65.7 23.35 65.7 15.91 61.41 15.91 52.8 23.36 57.09 30.81 61.4 30.81 61.41 38.27 65.7 45.72 70 53.17 65.7 60.63 61.41 60.63 61.4 68.08 57.09 75.53 52.8"/><path class="cls-2" d="M75.53,52.79V61.4l-7.44,4.3h0L60.63,70l-7.45,4.3h0v25.82l-7.45,4.3-7.45-4.3V74.31h0L30.81,70l-7.45-4.3h0l-7.44-4.3V52.79l7.45,4.3,7.45,4.3h0l7.46,4.3L45.72,70l7.45-4.3,7.46-4.3h0l7.45-4.3,7.45-4.3m1-1.73-1.5.87-7.45,4.3-7.45,4.3-.5.29h0l-7,4-7,4-6.95-4-7-4-.48-.29-7.45-4.3-7.45-4.3-1.5-.87V62l.5.29,7.23,4.18.22.13,7.45,4.3,7,4v25.81l.5.29,7.45,4.3.5.29.5-.29,7.45-4.3.5-.29V74.9l7-4,7.45-4.3.5-.29h0l7-4,.5-.29V51.06Z"/><polygon class="cls-3" points="15.91 26.98 8.45 22.68 15.9 18.36 15.91 18.38 15.91 18.36 23.35 14.06 23.36 14.06 30.81 9.77 38.26 5.46 38.27 5.46 45.72 1.16 53.17 5.46 53.17 5.46 53.18 5.46 60.63 9.77 68.08 14.06 68.09 14.06 75.53 18.36 75.53 18.38 75.54 18.36 82.99 22.68 75.53 26.98 60.63 18.38 53.17 14.06 45.72 9.77 38.27 14.06 30.81 18.38 15.91 26.98"/><path class="cls-4" d="M45.72,1.15l7.45,4.3h0l7.45,4.3,7.45,4.3h0l7.44,4.3h0L83,22.67,75.53,27l-14.9-8.6-7.46-4.31-7.45-4.3-7.45,4.3-7.46,4.31L15.91,27l-7.46-4.3,7.45-4.31h0l7.44-4.3h0l7.45-4.3,7.45-4.3h0l7.45-4.3m0-1.15-.5.29-7.45,4.3-.11.06h0L30.31,8.9l-7.22,4.16h0l-.24.14-7.2,4.16-.25.14L8,21.81l-1.5.87,1.5.86,7.46,4.3.5.29.5-.29,14.9-8.6,7.46-4.31,6.95-4,7,4,7.46,4.31L75,27.84l.5.29.5-.29,7.46-4.3,1.5-.86-1.5-.87L76,17.5l-.66-.39h0L68.59,13.2l-.23-.14h0L61.13,8.9,53.88,4.72l-.21-.13L46.22.29,45.72,0Z"/><polygon class="cls-5" points="90.44 26.98 90.44 78.61 82.99 82.92 82.99 82.92 82.98 82.92 75.54 87.22 75.53 87.22 68.08 91.53 60.63 95.83 60.63 87.22 68.08 82.92 68.09 82.92 75.53 78.63 75.53 78.61 82.99 74.31 82.99 39.9 75.54 44.2 75.53 44.2 68.09 48.49 68.08 48.49 60.63 52.8 60.63 52.8 53.18 57.1 53.17 57.1 45.72 61.41 38.27 57.1 38.26 57.1 30.81 52.8 30.81 52.8 23.36 48.49 23.35 48.49 15.91 44.2 15.9 44.2 8.45 39.9 8.45 74.31 15.91 78.61 15.91 78.63 23.35 82.92 23.36 82.92 30.81 87.22 30.81 95.83 23.36 91.53 15.91 87.22 15.9 87.22 8.46 82.92 8.45 82.92 8.45 82.92 1 78.61 1 26.98 8.45 31.27 8.45 31.29 8.46 31.29 15.9 35.59 15.91 35.59 30.81 44.19 38.27 48.49 45.72 52.8 53.17 48.49 60.63 44.19 75.53 35.59 75.54 35.59 82.98 31.29 82.99 31.29 82.99 31.27 90.44 26.98"/><path class="cls-6" d="M90.44,27V78.61L83,82.91h0l-7.44,4.3h0l-7.45,4.3-7.45,4.3v-8.6l7.45-4.3h0l7.44-4.29h0L83,74.31V39.89l-7.45,4.3h0l-7.44,4.3h0l-7.45,4.3h0l-7.45,4.3h0l-7.45,4.3-7.45-4.3h0l-7.45-4.3h0l-7.45-4.3h0l-7.44-4.3h0l-7.45-4.3V74.31l7.46,4.3h0l7.44,4.29h0l7.45,4.3v8.6l-7.45-4.3-7.45-4.3h0l-7.44-4.3h0L1,78.61V27l7.45,4.3h0l7.44,4.3h0l14.9,8.6,7.46,4.31,7.45,4.3,7.45-4.3,7.46-4.31,14.9-8.6h0L83,31.28h0L90.44,27m1-1.73-1.5.87-7.45,4.3-.5.29h0l-6.73,3.89-.23.13-14.9,8.6-7.46,4.31-7,4-6.95-4-7.46-4.31-14.9-8.6-.23-.14h0l-7-4L9,30.41,1.5,26.11,0,25.24v54l.5.29,7,4v.42h.74l7.21,4.17.23.13h0l7.22,4.17,7.45,4.3,1.5.87V86.65l-.5-.29L24,82.12h0l-.12-.07-6.94-4h0l-.5-.3-7-4V41.63l6,3.43.23.13h0l7.21,4.17.23.13h0l6.72,3.88.5.3L37.76,58l.23.13h0l7.22,4.17.5.29.5-.29,7.22-4.17h0l.24-.13,7.45-4.3.5-.29h0l6.72-3.88h0l.24-.13,7.22-4.17.23-.13L82,41.63V73.74l-7,4-.5.29h0l-6.94,4-.11.06h0l-7.34,4.24-.5.29V97.56l1.5-.87,7.45-4.3,7.22-4.17h0l.24-.13,7.21-4.17H84V83.5l7-4,.5-.29V25.24Z"/><polygon class="cls-7" points="45.72 70 45.72 104.44 38.27 100.14 38.27 74.31 38.26 74.31 30.81 70.02 23.36 65.72 23.36 65.7 23.35 65.7 15.91 61.41 15.91 52.8 23.36 57.09 30.81 61.4 30.81 61.41 38.27 65.7 45.72 70"/><polygon class="cls-8" points="45.72 1.16 45.72 9.77 38.27 14.06 30.81 18.38 15.91 26.98 8.45 22.68 15.9 18.36 15.91 18.38 15.91 18.36 23.35 14.06 23.36 14.06 30.81 9.77 38.26 5.46 38.27 5.46 45.72 1.16"/><polygon class="cls-9" points="45.72 52.8 45.72 61.41 38.27 57.1 38.26 57.1 30.81 52.8 30.81 52.8 23.36 48.49 23.35 48.49 15.91 44.2 15.9 44.2 8.45 39.9 8.45 74.31 15.91 78.61 15.91 78.63 23.35 82.92 23.36 82.92 30.81 87.22 30.81 95.83 23.36 91.53 15.91 87.22 15.9 87.22 8.46 82.92 8.45 82.92 8.45 82.92 1 78.61 1 26.98 8.45 31.27 8.45 31.29 8.46 31.29 15.9 35.59 15.91 35.59 30.81 44.19 38.27 48.49 45.72 52.8"/><path class="cls-10" d="M168.4,30.18V79.32h-12V49.85l-11,29.47h-9.66L124.72,49.77V79.32h-12V30.18h14.14l13.79,34,13.65-34Z"/><path class="cls-10" d="M212.36,30.18v9.59h-13V79.32h-12V39.77h-13V30.18Z"/><path class="cls-10" d="M230.35,70.07H246v9.25H218.38V30.18h12Z"/><polygon class="cls-11" points="140.72 50.77 133.63 29.89 147.81 29.89 140.72 50.77"/></g></g></svg>